HIERARCHY
ROOT Junyuan_V1:Solving:Hips
{
	OFFSET 0.000000 0.000000 0.000000
	CHANNELS 6 Xposition Yposition Zposition Xrotation Yrotation Zrotation
	JOINT Junyuan_V1:Solving:Spine
	{
		OFFSET 0.000000 -11.180205 2.228564
		CHANNELS 6 Xposition Yposition Zposition Xrotation Yrotation Zrotation
		JOINT Junyuan_V1:Solving:Spine1
		{
			OFFSET 0.000000 -8.682996 1.531049
			CHANNELS 6 Xposition Yposition Zposition Xrotation Yrotation Zrotation
			JOINT Junyuan_V1:Solving:Spine2
			{
				OFFSET 0.000000 -8.783394 0.768450
				CHANNELS 6 Xposition Yposition Zposition Xrotation Yrotation Zrotation
				JOINT Junyuan_V1:Solving:Spine3
				{
					OFFSET 0.000000 -8.816944 0.000000
					CHANNELS 6 Xposition Yposition Zposition Xrotation Yrotation Zrotation
					JOINT Junyuan_V1:Solving:Neck
					{
						OFFSET 0.000000 -11.336071 -1.133605
						CHANNELS 6 Xposition Yposition Zposition Xrotation Yrotation Zrotation
						JOINT Junyuan_V1:Solving:Neck1
						{
							OFFSET 0.000000 -7.643246 -0.668695
							CHANNELS 6 Xposition Yposition Zposition Xrotation Yrotation Zrotation
							JOINT Junyuan_V1:Solving:Head
							{
								OFFSET 0.000000 -7.555870 -1.332303
								CHANNELS 6 Xposition Yposition Zposition Xrotation Yrotation Zrotation
								JOINT Junyuan_V1:Solving:HeadEnd
								{
									OFFSET 0.000000 -9.728081 0.000002
									CHANNELS 6 Xposition Yposition Zposition Xrotation Yrotation Zrotation
									End Site
									{
										OFFSET 0.000000 -9.728081 0.000002
									}
								}
							}
						}
					}
					JOINT Junyuan_V1:Solving:RightShoulder
					{
						OFFSET 0.000000 -8.097195 -5.270916
						CHANNELS 6 Xposition Yposition Zposition Xrotation Yrotation Zrotation
						JOINT Junyuan_V1:Solving:RightArm
						{
							OFFSET -20.762394 -0.000008 0.000000
							CHANNELS 6 Xposition Yposition Zposition Xrotation Yrotation Zrotation
							JOINT Junyuan_V1:Solving:RightForeArm
							{
								OFFSET -29.048946 -0.000008 0.000000
								CHANNELS 6 Xposition Yposition Zposition Xrotation Yrotation Zrotation
								JOINT Junyuan_V1:Solving:RightHand
								{
									OFFSET -22.031235 -0.000008 0.000000
									CHANNELS 6 Xposition Yposition Zposition Xrotation Yrotation Zrotation
									JOINT Junyuan_V1:Solving:RightHandThumb1
									{
										OFFSET -3.579254 2.890213 -2.661497
										CHANNELS 6 Xposition Yposition Zposition Xrotation Yrotation Zrotation
										End Site
										{
											OFFSET -5.229485 0.000000 -5.277840
										}
									}
									JOINT Junyuan_V1:Solving:RightHandMiddle1
									{
										OFFSET -9.544678 -0.000004 0.061184
										CHANNELS 6 Xposition Yposition Zposition Xrotation Yrotation Zrotation
										End Site
										{
											OFFSET -7.429878 -0.000004 0.000000
										}
									}
								}
							}
						}
					}
					JOINT Junyuan_V1:Solving:LeftShoulder
					{
						OFFSET 0.000000 -8.097195 -5.270916
						CHANNELS 6 Xposition Yposition Zposition Xrotation Yrotation Zrotation
						JOINT Junyuan_V1:Solving:LeftArm
						{
							OFFSET 20.762394 -0.000008 0.000000
							CHANNELS 6 Xposition Yposition Zposition Xrotation Yrotation Zrotation
							JOINT Junyuan_V1:Solving:LeftForeArm
							{
								OFFSET 29.048946 -0.000008 0.000000
								CHANNELS 6 Xposition Yposition Zposition Xrotation Yrotation Zrotation
								JOINT Junyuan_V1:Solving:LeftHand
								{
									OFFSET 22.031235 -0.000008 0.000000
									CHANNELS 6 Xposition Yposition Zposition Xrotation Yrotation Zrotation
									JOINT Junyuan_V1:Solving:LeftHandThumb1
									{
										OFFSET 3.579254 2.890213 -2.661497
										CHANNELS 6 Xposition Yposition Zposition Xrotation Yrotation Zrotation
										End Site
										{
											OFFSET 5.229485 0.000000 -5.277840
										}
									}
									JOINT Junyuan_V1:Solving:LeftHandMiddle1
									{
										OFFSET 9.544678 -0.000004 0.061184
										CHANNELS 6 Xposition Yposition Zposition Xrotation Yrotation Zrotation
										End Site
										{
											OFFSET 7.429878 -0.000004 0.000000
										}
									}
								}
							}
						}
					}
				}
			}
		}
	}
	JOINT Junyuan_V1:Solving:RightUpLeg
	{
		OFFSET -10.825166 0.000000 0.000000
		CHANNELS 6 Xposition Yposition Zposition Xrotation Yrotation Zrotation
		JOINT Junyuan_V1:Solving:RightLeg
		{
			OFFSET 0.000000 43.678444 -0.000006
			CHANNELS 6 Xposition Yposition Zposition Xrotation Yrotation Zrotation
			JOINT Junyuan_V1:Solving:RightFoot
			{
				OFFSET 0.000000 36.488441 -0.000006
				CHANNELS 6 Xposition Yposition Zposition Xrotation Yrotation Zrotation
				JOINT Junyuan_V1:Solving:RightForeFoot
				{
					OFFSET 0.000000 3.967834 -0.000000
					CHANNELS 6 Xposition Yposition Zposition Xrotation Yrotation Zrotation
					JOINT Junyuan_V1:Solving:RightToeBase
					{
						OFFSET 0.000000 0.000000 -15.539299
						CHANNELS 6 Xposition Yposition Zposition Xrotation Yrotation Zrotation
						JOINT Junyuan_V1:Solving:RightToeBaseEnd
						{
							OFFSET 0.000000 0.000000 -3.486985
							CHANNELS 6 Xposition Yposition Zposition Xrotation Yrotation Zrotation
							End Site
							{
								OFFSET 0.000000 -3.486992 0.000000
							}
						}
					}
				}
			}
		}
	}
	JOINT Junyuan_V1:Solving:LeftUpLeg
	{
		OFFSET 10.825166 0.000000 0.000000
		CHANNELS 6 Xposition Yposition Zposition Xrotation Yrotation Zrotation
		JOINT Junyuan_V1:Solving:LeftLeg
		{
			OFFSET 0.000000 43.678444 -0.000006
			CHANNELS 6 Xposition Yposition Zposition Xrotation Yrotation Zrotation
			JOINT Junyuan_V1:Solving:LeftFoot
			{
				OFFSET 0.000000 36.488441 -0.000006
				CHANNELS 6 Xposition Yposition Zposition Xrotation Yrotation Zrotation
				JOINT Junyuan_V1:Solving:LeftForeFoot
				{
					OFFSET 0.000000 3.967834 -0.000000
					CHANNELS 6 Xposition Yposition Zposition Xrotation Yrotation Zrotation
					JOINT Junyuan_V1:Solving:LeftToeBase
					{
						OFFSET 0.000000 0.000000 -15.539299
						CHANNELS 6 Xposition Yposition Zposition Xrotation Yrotation Zrotation
						JOINT Junyuan_V1:Solving:LeftToeBaseEnd
						{
							OFFSET 0.000000 0.000000 -3.974441
							CHANNELS 6 Xposition Yposition Zposition Xrotation Yrotation Zrotation
							End Site
							{
								OFFSET 0.000000 -3.974442 0.000000
							}
						}
					}
				}
			}
		}
	}
}
MOTION
Frames: 4
Frame Time: 0.041667
-61.132290 -1.937432 -78.005814 27.006679 -177.091328 6.344346 0.000005 -11.180190 2.228554 14.573283 1.184604 -0.931748 0.000005 -8.682993 1.531047 19.819737 0.085626 -0.244013 0.000000 -8.783392 0.768442 18.185841 -5.326847 -1.947935 0.000000 -8.816956 -0.000012 -8.870581 -0.489767 -0.932718 0.000010 -11.336078 -1.133621 -39.890367 -12.445116 11.011633 0.000007 -7.643261 -0.668713 6.692695 6.716648 -8.790241 -0.000004 -7.555871 -1.332300 -0.674464 -0.228837 1.347930 0.000002 -9.728127 0.000003 0.000002 -0.000000 0.000000 0.000007 -8.097202 -5.270935 0.000018 10.331168 37.764369 -20.762388 -0.000013 0.000007 -90.619706 4.686705 -87.498514 -29.048964 -0.000010 -0.000007 -47.012691 -23.474050 -23.139402 -22.031235 -0.000018 -0.000015 5.850182 -11.730480 26.746819 -3.579261 2.890213 -2.661497 0.000006 -0.000000 0.000002 -9.544686 -0.000007 0.061181 0.000003 -0.000000 -0.000002 0.000007 -8.097191 -5.270929 0.000000 -14.806749 -19.140147 20.762386 -0.000017 0.000002 -100.899577 33.941379 82.895964 29.048954 -0.000001 0.000015 -62.508696 6.393671 12.078981 22.031242 -0.000012 0.000004 9.498094 16.310398 -30.784025 3.579271 2.890200 -2.661506 0.000001 0.000000 0.000003 9.544705 -0.000016 0.061177 0.000001 -0.000001 0.000006 -10.825157 0.000013 -0.000003 -101.860517 23.365860 15.822704 0.000003 43.678463 0.000005 48.022913 0.000003 0.000000 -0.000003 36.488441 -0.000010 -5.783472 11.786137 -6.592634 0.000004 3.967827 0.000000 0.000001 -0.000002 0.000000 0.000009 0.000001 -15.539289 10.474698 -0.000008 0.000001 0.000000 -0.000015 -3.486987 0.000000 0.000003 0.000000 10.825150 0.000013 -0.000005 -107.168175 -13.468409 -24.970477 0.000013 43.678455 0.000013 49.186497 0.000003 0.000005 -0.000021 36.488426 -0.000006 -1.381135 5.721822 4.971479 -0.000026 3.967827 -0.000003 0.000001 0.000003 -0.000000 0.000006 -0.000000 -15.539298 0.624316 0.000001 -0.000000 0.000005 -0.000008 -3.974445 -0.000000 0.000002 0.000000 
-61.124969 -1.887614 -77.867813 26.597868 -176.986935 6.495733 -0.000001 -11.180211 2.228574 14.593430 1.198833 -1.000721 0.000002 -8.683003 1.531041 19.726068 0.093067 -0.334515 0.000001 -8.783393 0.768469 17.799231 -5.378156 -2.081164 0.000003 -8.816933 -0.000014 -8.795924 -0.514819 -1.137201 -0.000009 -11.336087 -1.133607 -39.632982 -13.484784 12.673466 -0.000011 -7.643257 -0.668689 7.063866 7.376551 -10.693835 -0.000009 -7.555863 -1.332313 -0.750836 -0.333463 1.629474 -0.000013 -9.728096 -0.000004 0.000001 0.000000 -0.000000 -0.000008 -8.097221 -5.270921 0.000021 10.285497 38.415180 -20.762398 -0.000020 0.000010 -90.632259 5.048299 -87.634749 -29.048950 -0.000007 0.000005 -46.607145 -23.638870 -22.982731 -22.031227 -0.000013 -0.000011 5.920925 -11.708627 27.069201 -3.579272 2.890210 -2.661505 0.000005 0.000002 0.000007 -9.544683 -0.000011 0.061176 -0.000002 -0.000001 0.000003 -0.000005 -8.097218 -5.270921 -0.000001 -14.700244 -18.578705 20.762392 -0.000010 -0.000019 -100.631568 34.424894 82.636287 29.048954 -0.000022 0.000005 -62.697810 6.280989 11.966575 22.031216 -0.000008 0.000008 9.441907 16.188908 -30.815095 3.579251 2.890193 -2.661503 0.000003 -0.000002 -0.000005 9.544683 0.000003 0.061181 -0.000001 0.000001 -0.000004 -10.825163 -0.000014 0.000018 -102.467762 23.492902 15.864458 0.000004 43.678463 0.000008 48.365990 0.000005 0.000003 0.000003 36.488445 -0.000003 -5.956232 11.818418 -6.595809 0.000011 3.967827 0.000008 -0.000000 0.000000 -0.000000 0.000004 -0.000002 -15.539298 10.476864 0.000003 -0.000001 -0.000005 -0.000007 -3.486981 0.000002 -0.000006 0.000000 10.825163 -0.000006 0.000007 -107.918341 -13.272579 -25.090662 0.000001 43.678444 -0.000018 49.647890 -0.000004 0.000001 0.000003 36.488426 -0.000021 -1.540639 5.794903 4.963182 0.000012 3.967834 -0.000008 0.000001 -0.000000 0.000001 -0.000011 0.000001 -15.539299 0.657518 0.000000 -0.000001 -0.000003 -0.000008 -3.974427 -0.000001 0.000005 -0.000000 
-61.105869 -1.783479 -77.729889 25.970739 -176.916748 6.722420 0.000013 -11.180200 2.228569 14.438806 1.211110 -1.051044 0.000002 -8.682994 1.531046 19.449539 0.104693 -0.405498 0.000008 -8.783393 0.768452 17.438591 -5.539814 -2.439893 0.000003 -8.816936 0.000000 -8.612114 -0.588212 -1.136756 0.000007 -11.336088 -1.133621 -39.388741 -13.859278 13.334668 0.000008 -7.643258 -0.668686 7.091431 7.576674 -11.270369 0.000002 -7.555842 -1.332316 -0.768819 -0.368272 1.721720 -0.000007 -9.728096 -0.000006 -0.000001 -0.000000 0.000000 0.000001 -8.097206 -5.270923 0.000022 10.304229 38.851441 -20.762384 -0.000005 0.000021 -90.630484 5.103268 -87.604976 -29.048958 -0.000009 0.000004 -46.379669 -23.716406 -22.882710 -22.031231 -0.000012 -0.000011 5.943950 -11.616451 27.341865 -3.579261 2.890211 -2.661495 0.000003 -0.000010 0.000000 -9.544706 0.000001 0.061188 -0.000002 0.000003 0.000002 0.000005 -8.097206 -5.270929 0.000007 -14.616260 -18.314724 20.762390 -0.000019 -0.000015 -100.497518 34.632201 82.546811 29.048943 -0.000022 0.000013 -62.779342 6.199377 11.856275 22.031239 -0.000014 -0.000002 9.446055 16.080021 -30.992246 3.579248 2.890203 -2.661500 0.000002 0.000000 0.000002 9.544694 -0.000017 0.061173 0.000001 -0.000007 0.000001 -10.825157 0.000005 0.000003 -103.351404 23.662890 15.983109 -0.000002 43.678444 0.000011 48.715873 -0.000001 0.000003 0.000004 36.488438 -0.000002 -6.061628 11.881759 -6.580113 0.000004 3.967827 0.000003 -0.000000 -0.000002 -0.000000 -0.000001 -0.000005 -15.539303 10.467323 0.000003 0.000001 0.000009 -0.000015 -3.486989 0.000001 0.000003 0.000000 10.825177 0.000005 0.000006 -108.889608 -12.982111 -25.091656 -0.000023 43.678459 -0.000014 50.053976 -0.000002 0.000003 0.000027 36.488441 -0.000016 -1.535847 5.866854 4.864681 -0.000011 3.967827 -0.000001 0.000001 0.000001 0.000000 -0.000002 -0.000004 -15.539302 0.532816 -0.000001 -0.000001 0.000004 -0.000007 -3.974458 0.000000 0.000003 -0.000000 
-61.084263 -1.692006 -77.583885 25.396990 -176.802630 6.926492 0.000006 -11.180189 2.228563 14.199384 1.232146 -1.093182 0.000012 -8.682991 1.531039 19.135304 0.108412 -0.476111 -0.000003 -8.783395 0.768454 17.349136 -5.707916 -2.654894 0.000007 -8.816940 0.000011 -8.418375 -0.665501 -1.073352 0.000004 -11.336073 -1.133605 -39.391719 -13.895140 13.390908 0.000009 -7.643247 -0.668688 7.111236 7.591446 -11.229101 0.000005 -7.555882 -1.332287 -0.762180 -0.370862 1.737298 -0.000004 -9.728065 -0.000005 0.000002 -0.000000 0.000000 0.000007 -8.097187 -5.270908 0.000012 10.358652 39.044612 -20.762390 -0.000012 0.000009 -90.786792 4.993909 -87.485707 -29.048954 -0.000012 -0.000005 -46.248232 -23.676192 -22.755871 -22.031239 -0.000012 -0.000005 5.969630 -11.545230 27.585898 -3.579253 2.890211 -2.661501 0.000002 -0.000002 0.000001 -9.544690 -0.000005 0.061175 0.000004 -0.000002 -0.000006 0.000009 -8.097195 -5.270916 -0.000007 -14.563360 -18.261453 20.762390 -0.000007 -0.000020 -100.515202 34.779631 82.467212 29.048960 -0.000016 0.000000 -62.871543 6.098426 11.714294 22.031239 -0.000031 -0.000006 9.462232 15.998152 -31.162298 3.579257 2.890200 -2.661489 0.000008 0.000003 -0.000006 9.544677 -0.000011 0.061194 -0.000000 -0.000001 -0.000001 -10.825155 0.000009 0.000010 -104.166170 23.823840 16.054406 0.000001 43.678425 -0.000003 49.071590 0.000002 0.000002 -0.000002 36.488430 -0.000007 -6.213308 11.933444 -6.576492 0.000014 3.967827 0.000000 0.000001 0.000002 -0.000000 -0.000003 0.000011 -15.539308 10.485064 0.000001 0.000001 0.000000 -0.000008 -3.486985 0.000000 0.000002 -0.000001 10.825171 0.000007 0.000001 -109.857855 -12.709531 -25.168086 -0.000028 43.678436 0.000009 50.532646 0.000007 0.000001 -0.000015 36.488441 0.000006 -1.567655 5.966490 4.760966 -0.000006 3.967827 -0.000006 -0.000000 0.000004 -0.000000 0.000014 -0.000019 -15.539309 0.461475 -0.000000 -0.000001 0.000005 -0.000008 -3.974441 -0.000000 0.000004 -0.000001 
